<svg width="72" height="72" viewBox="0 0 72 72" fill="none" xmlns="http://www.w3.org/2000/svg">
<path d="M36 52C36 63.0457 27.0457 72 16 72L4 72C1.79086 72 -3.65814e-06 70.2091 -3.46501e-06 68L-1.54171e-06 46C-1.05888e-06 40.4772 4.47715 36 10 36L36 36L36 52Z" fill="#0070E0"/>
<path d="M36 20C36 8.95431 27.0457 0 16 0H4C1.79086 0 0 1.79086 0 4V26C0 31.5228 4.47715 36 10 36H36V20Z" fill="#0070E0"/>
<path d="M36 20C36 8.95431 44.9543 0 56 0H68C70.2091 0 72 1.79086 72 4V26C72 31.5228 67.5228 36 62 36H36V20Z" fill="#003087"/>
<path d="M36 52C36 63.0457 44.9543 72 56 72L68 72C70.2091 72 72 70.2091 72 68L72 46C72 40.4772 67.5228 36 62 36L36 36L36 52Z" fill="#003087"/>
<path fill-rule="evenodd" clip-rule="evenodd" d="M36 7.99805C38.5116 11.341 40 15.4967 40 20V36H32V20C32 15.4967 33.4884 11.341 36 7.99805Z" fill="#FAF8F5"/>
<path fill-rule="evenodd" clip-rule="evenodd" d="M36 64.0019C33.4884 60.659 32 56.5033 32 52V36L40 36L40 52C40 56.5033 38.5116 60.659 36 64.0019Z" fill="#FAF8F5"/>
</svg>
