<svg width="72" height="72" viewBox="0 0 72 72" fill="none" xmlns="http://www.w3.org/2000/svg">
<rect y="32" width="72" height="40" rx="4" fill="#003087"/>
<circle cx="35.9987" cy="13.1764" r="13.1764" fill="#0070E0"/>
<circle cx="22.4235" cy="18.4228" r="12.8" transform="rotate(135 22.4235 18.4228)" fill="#0070E0"/>
<circle cx="49.5757" cy="18.4239" r="12.8" transform="rotate(45 49.5757 18.4239)" fill="#0070E0"/>
<path fill-rule="evenodd" clip-rule="evenodd" d="M9.88759 42.9789C6.33819 40.6181 3.99902 36.582 3.99902 31.9997C3.99902 24.7225 9.89831 18.8232 17.1754 18.8232C24.4526 18.8232 30.3519 24.7225 30.3519 31.9997C30.3519 33.1121 30.214 34.1924 29.9544 35.2243C30.4858 35.6119 30.994 36.0455 31.4737 36.5251C31.9534 37.0048 32.387 37.5131 32.7746 38.0445C33.8064 37.785 34.8865 37.6472 35.9987 37.6472C37.1113 37.6472 38.1918 37.7851 39.2238 38.0447C39.6113 37.5135 40.0448 37.0054 40.5244 36.5259C41.0042 36.046 41.5127 35.6122 42.0444 35.2245C41.7847 34.1925 41.6469 33.1122 41.6469 31.9997C41.6469 24.7225 47.5462 18.8232 54.8233 18.8232C62.1004 18.8232 67.9997 24.7225 67.9997 31.9997C67.9997 36.5824 65.6602 40.6187 62.1104 42.9794C62.9513 47.0564 61.7899 51.4641 58.6262 54.6278C55.4625 57.7915 51.0547 58.9529 46.9776 58.1119C44.6168 61.661 40.5809 64 35.9987 64C31.4163 64 27.3802 61.6608 25.0194 58.1113C20.9426 58.9519 16.5353 57.7904 13.3718 54.627C10.2082 51.4634 9.04682 47.0558 9.88759 42.9789Z" fill="#0070E0"/>
<path fill-rule="evenodd" clip-rule="evenodd" d="M3.99902 32C3.99912 36.5823 6.33827 40.6182 9.88759 42.9789C9.04682 47.0559 10.2082 51.4634 13.3718 54.627C16.5353 57.7905 20.9426 58.9519 25.0194 58.1114C27.3802 61.6608 31.4163 64.0001 35.9987 64.0001C40.5809 64.0001 44.6168 61.6611 46.9776 58.1119C51.0547 58.9529 55.4625 57.7915 58.6262 54.6278C61.7899 51.4642 62.9513 47.0565 62.1104 42.9794C65.6601 40.6188 67.9996 36.5826 67.9997 32H41.6469C41.6469 33.1124 41.7848 34.1927 42.0444 35.2245C41.5127 35.6123 41.0042 36.0461 40.5244 36.526C40.0448 37.0055 39.6113 37.5136 39.2238 38.0448C38.1918 37.7851 37.1113 37.6472 35.9987 37.6472C34.8865 37.6472 33.8064 37.785 32.7746 38.0445C32.387 37.5131 31.9534 37.0048 31.4737 36.5252C30.994 36.0455 30.4858 35.6119 29.9544 35.2243C30.214 34.1925 30.3518 33.1123 30.3519 32H3.99902Z" fill="#FAF8F5"/>
<circle cx="36" cy="32" r="14" fill="#003087"/>
</svg>
